<svg xmlns="http://www.w3.org/2000/svg" viewBox="0 0 64 64" role="img" aria-labelledby="title">
  <title>CSL favicon</title>
  <rect width="64" height="64" rx="16" fill="#16324f" />
  <path d="M20 24c2.8-5.1 7.5-7.7 14-7.7 4.1 0 7.8 1.1 10.8 3.3l-3.2 4.4c-2.2-1.5-4.6-2.2-7.3-2.2-4.2 0-7.1 1.8-8.9 5.4-1.1 2.2-1.6 4.7-1.6 7.5 0 3 .7 5.6 2.2 7.8 1.9 2.9 4.8 4.4 8.9 4.4 2.8 0 5.3-.8 7.6-2.5l3.1 4.3c-3.3 2.5-7.2 3.8-11.6 3.8-5.8 0-10.3-1.9-13.4-5.8-2.7-3.3-4-7.3-4-12 0-4.1 1.1-7.9 3.4-11z" fill="#fff" />
  <path d="M46 46.8h-5.4V17.2H46z" fill="#8ab1d8" />
</svg>
